PathFileType	4	(X/Y/Z)	G:\Shared drives\HPL_Drive\Pi-Spi Study\20230118_AMCsubject1\Trimmed_left_flex_18001_rotated.trc
DataRate	CameraRate	NumFrames	NumMarkers	Units	OrigDataRate	OrigDataStartFrame	OrigNumFrames
200.00	200.00	       9	35	mm	200.00	126	       200
Frame#	Time	C7			Sternum			r_AMC1			r_AMC2			r_AMC3			l_AMC1			l_AMC2			l_AMC3			PX			T8			r_humerous			r_elbow_medial			r_elbow_lateral			r_forearm			r_wrist_radius			r_wrist_ulna			r_MCP_1			r_MCP_3			l_humerous			l_elbow_medial			l_elbow_lateral			l_forearm			l_wrist_radius			l_wrist_ulna			l_MCP_1			l_MCP_3			r_ASIS			r_PSIS			l_ASIS			l_PSIS			r_IC			l_IC			TS			AI			AA			
		X1	Y1	Z1	X2	Y2	Z2	X3	Y3	Z3	X4	Y4	Z4	X5	Y5	Z5	X6	Y6	Z6	X7	Y7	Z7	X8	Y8	Z8	X9	Y9	Z9	X10	Y10	Z10	X11	Y11	Z11	X12	Y12	Z12	X13	Y13	Z13	X14	Y14	Z14	X15	Y15	Z15	X16	Y16	Z16	X17	Y17	Z17	X18	Y18	Z18	X19	Y19	Z19	X20	Y20	Z20	X21	Y21	Z21	X22	Y22	Z22	X23	Y23	Z23	X24	Y24	Z24	X25	Y25	Z25	X26	Y26	Z26	X27	Y27	Z27	X28	Y28	Z28	X29	Y29	Z29	X30	Y30	Z30	X31	Y31	Z31	X32	Y32	Z32	X33	Y33	Z33	X34	Y34	Z34	X35	Y35	Z35	

126	0.625	196.0034	1368.2913	-235.4532	332.6471	1325.3193	-205.0931	178.8204	1318.5326	-78.2447	208.9236	1322.427	-37.8171	229.6516	1358.6185	-56.4362	202.7716	1341.0559	-359.2433	237.58	1375.9802	-373.3549	225.7676	1396.9966	-326.4831	406.6386	1134.9481	-198.6332	175.4775	1189.7483	-239.3735	293.6776	1143.0825	-11.7413	233.6652	998.0376	-41.7773	245.2857	1009.6432	23.0655	303.8959	857.191	50.3793	355.9699	795.6273	34.0299	308.2452	787.1141	51.0215	380.2888	714.3444	49.0242	331.7808	709.3319	62.4271	316.3191	1475.9054	-353.3505	407.8654	1564.0735	-431.7735	362.2127	1589.3626	-439.9355	384.5873	1748.7678	-441.8579	394.984	1821.8799	-424.8313	430.9316	1817.35	-448.948	398.7032	1896.5013	-433.078	437.749	1893.3899	-451.5049	373.2519	907.1965	-77.4417	186.0566	928.8148	-163.3874	375.6381	894.553	-335.8685	187.6623	922.6158	-265.6161	292.3502	970.8747	-51.5527	290.9328	941.0297	-375.8843	139.5726	1290.2351	-334.6687	167.6792	1198.4833	-366.8628	198.2562	1352.0222	-443.5587
127	0.63	195.9749	1368.281	-235.4687	332.5974	1325.3611	-205.0599	178.8126	1318.5196	-78.2866	208.9498	1322.3862	-37.8325	229.6485	1358.6843	-56.4909	202.774	1341.0327	-359.2554	237.7143	1375.8572	-373.4159	225.7457	1396.9791	-326.481	406.5995	1134.9514	-198.6321	175.4872	1189.7404	-239.3845	293.6752	1143.1355	-11.7202	233.6661	998.0786	-41.7407	245.2854	1009.6677	23.089	303.8333	857.2529	50.4544	355.8919	795.7325	34.1409	308.1064	787.1258	51.0341	380.3382	714.2756	49.0695	331.7374	709.3991	62.4985	316.2989	1475.9054	-353.4117	407.8235	1564.0609	-431.7819	362.2076	1589.3529	-439.94	384.5918	1748.7452	-441.9128	394.9661	1821.9031	-424.8932	430.956	1817.2882	-448.9931	398.6822	1896.4728	-433.1304	437.7285	1893.3568	-451.5772	373.285	907.2164	-77.427	186.0677	928.8261	-163.3719	375.6126	894.5414	-335.8461	187.6854	922.6329	-265.5815	292.3573	970.8956	-51.4894	290.9191	941.0311	-375.8496	139.537	1290.2172	-334.6495	167.6766	1198.4534	-366.8079	198.2352	1351.9559	-443.5449
128	0.635	195.9648	1368.274	-235.4831	332.6071	1325.332	-205.0989	178.7902	1318.5378	-78.283	208.9108	1322.4488	-37.8458	229.6154	1358.6246	-56.4155	202.7442	1341.0162	-359.2567	237.562	1375.952	-373.3986	225.7305	1396.9658	-326.5172	406.6144	1134.9902	-198.6406	175.4476	1189.7435	-239.377	293.695	1143.1334	-11.7465	233.6474	998.0753	-41.7092	245.263	1009.6952	23.154	303.8227	857.2977	50.4868	355.9256	795.7013	34.1655	308.0849	787.2224	51.1538	380.2796	714.2805	49.1666	331.7055	709.4274	62.6039	316.2335	1475.9457	-353.4187	407.8085	1564.0657	-431.8102	362.1558	1589.3479	-439.9662	384.5675	1748.7213	-441.9603	394.9525	1821.8689	-424.9173	430.9062	1817.293	-449.0385	398.6556	1896.4556	-433.1693	437.7257	1893.3258	-451.6217	373.2725	907.2691	-77.4199	186.0923	928.8511	-163.3658	375.6237	894.5733	-335.846	187.6846	922.6216	-265.5764	292.3647	970.9355	-51.5052	290.871	941.0893	-375.8136	139.5205	1290.1881	-334.6173	167.6425	1198.373	-366.8177	198.2	1351.8894	-443.5646
129	0.64	195.939	1368.2772	-235.4898	332.5876	1325.3408	-205.1079	178.7792	1318.5474	-78.286	208.7505	1322.379	-37.5107	229.5958	1358.6948	-56.473	202.7518	1341.0032	-359.2973	237.6739	1375.8275	-373.4765	225.7029	1396.9573	-326.5142	406.6543	1135.0044	-198.626	175.4627	1189.7228	-239.3755	293.6524	1143.1682	-11.7152	233.6413	998.1163	-41.6705	245.2873	1009.7794	23.1485	303.8511	857.2783	50.521	355.8747	795.7663	34.2291	308.1116	787.1852	51.1891	380.2029	714.3685	49.242	331.7339	709.4194	62.6686	316.2974	1475.8649	-353.4258	407.7982	1564.0243	-431.8188	362.16	1589.3314	-439.9756	384.561	1748.7031	-441.9941	394.9267	1821.8566	-424.9468	430.8773	1817.3307	-449.0485	398.6185	1896.4514	-433.2125	437.699	1893.3192	-451.6684	373.2649	907.2125	-77.4216	186.1075	928.8464	-163.358	375.664	894.5668	-335.842	187.7117	922.6392	-265.5819	292.3774	971.0298	-51.4924	290.9544	941.033	-375.8445	139.5518	1290.1692	-334.6723	167.6426	1198.3669	-366.7948	198.1773	1351.845	-443.5753
130	0.645	195.9274	1368.2706	-235.5027	332.5943	1325.3254	-205.1121	178.7894	1318.5515	-78.323	208.8888	1322.4833	-37.8573	229.5787	1358.7042	-56.5039	202.7138	1340.9818	-359.293	237.6665	1375.8219	-373.4905	225.6922	1396.9458	-326.5682	406.6337	1135.0155	-198.6197	175.4542	1189.71	-239.3812	293.6452	1143.1987	-11.7226	233.6395	998.1296	-41.6639	245.2579	1009.7552	23.1974	303.7872	857.3455	50.5985	355.8607	795.7714	34.2998	308.0242	787.1952	51.2291	380.2259	714.3433	49.288	331.5802	709.5397	62.7261	316.2674	1475.8679	-353.4133	407.764	1564.0098	-431.8287	362.1255	1589.3224	-439.999	384.5176	1748.7012	-442.0427	394.9313	1821.8522	-424.9958	430.9342	1817.2466	-449.1108	398.5962	1896.4294	-433.2486	437.6728	1893.3293	-451.714	373.2996	907.1844	-77.4399	186.0697	928.9274	-163.2884	375.658	894.5811	-335.8228	187.7281	922.6444	-265.5699	292.3857	971.0126	-51.4675	290.9377	941.0611	-375.8321	139.5244	1290.1318	-334.6393	167.6382	1198.326	-366.7602	198.1405	1351.7861	-443.6273
131	0.65	195.9197	1368.2565	-235.521	332.5444	1325.3328	-205.1546	178.7664	1318.5344	-78.3554	208.8717	1322.5159	-37.8627	229.5698	1358.6717	-56.5079	202.696	1340.9586	-359.3112	237.6537	1375.7986	-373.5288	225.6567	1396.9399	-326.5858	406.6515	1135.0004	-198.5882	175.4512	1189.6968	-239.3753	293.6413	1143.192	-11.7239	233.6378	998.1346	-41.644	245.2591	1009.8142	23.2068	303.7193	857.3936	50.6746	355.889	795.7817	34.3255	307.9628	787.2568	51.317	380.2133	714.3839	49.3642	331.6239	709.5273	62.7876	316.1625	1475.9416	-353.459	407.7007	1564.0605	-431.8711	362.1166	1589.3075	-440.0162	384.5337	1748.6926	-442.0879	394.8848	1821.8107	-425.0262	430.8809	1817.256	-449.1247	398.5441	1896.4044	-433.304	437.6212	1893.2993	-451.7505	373.3405	907.2058	-77.4445	186.0736	928.926	-163.2678	375.6728	894.5802	-335.8129	187.7231	922.6517	-265.547	292.3741	971.084	-51.4358	290.9304	941.0617	-375.7853	139.4682	1290.0858	-334.6048	167.6087	1198.2638	-366.6983	198.0753	1351.7416	-443.613
132	0.655	195.9	1368.2428	-235.5384	332.5645	1325.3254	-205.1746	178.7588	1318.5579	-78.3373	208.707	1322.4099	-37.5825	229.5188	1358.7378	-56.5324	202.6768	1340.958	-359.3378	237.6422	1375.7922	-373.5661	225.6289	1396.9409	-326.6037	406.6066	1135.0433	-198.5927	175.4453	1189.674	-239.3843	293.604	1143.2263	-11.6778	233.617	998.1602	-41.6369	245.2265	1009.8648	23.2527	303.775	857.3708	50.696	355.8459	795.8441	34.4368	307.9871	787.2307	51.3304	380.1462	714.4487	49.4445	331.5304	709.5956	62.8252	316.2121	1475.8672	-353.4489	407.6979	1563.9851	-431.8701	362.0959	1589.3166	-440.0241	384.5068	1748.689	-442.1012	394.8797	1821.838	-425.0609	430.8433	1817.3132	-449.1674	398.526	1896.4196	-433.3286	437.5987	1893.3009	-451.7591	373.3055	907.1937	-77.4573	186.0895	928.9329	-163.2526	375.6909	894.5817	-335.8255	187.7193	922.6774	-265.5325	292.4225	970.9714	-51.4816	291.0013	941.0267	-375.8342	139.4625	1290.0464	-334.5979	167.5852	1198.251	-366.659	198.0192	1351.7018	-443.6227
133	0.66	195.8769	1368.245	-235.5481	332.5253	1325.327	-205.2024	178.7253	1318.5635	-78.3735	208.8217	1322.4935	-37.9111	229.5109	1358.5966	-56.4512	202.6726	1340.9439	-359.3611	237.5952	1375.7751	-373.549	225.634	1396.9232	-326.657	406.5987	1135.0175	-198.5787	175.4365	1189.6593	-239.3895	293.6126	1143.2734	-11.6872	233.615	998.1826	-41.594	245.2329	1009.9033	23.2457	303.7138	857.4104	50.7411	355.8185	795.8778	34.4563	307.9183	787.2953	51.4108	380.1424	714.4428	49.4962	331.5451	709.587	62.9078	316.1735	1475.8884	-353.4638	407.6946	1563.9805	-431.9076	362.0729	1589.292	-440.0695	384.4884	1748.6749	-442.1408	394.8437	1821.8356	-425.0759	430.8356	1817.2048	-449.1849	398.5016	1896.4255	-433.3681	437.5849	1893.3073	-451.8212	373.3275	907.2232	-77.4343	186.1114	928.9318	-163.242	375.7004	894.5825	-335.8058	187.7353	922.6644	-265.5166	292.4437	970.9175	-51.4758	290.9704	941.0855	-375.7901	139.4636	1290.0236	-334.5779	167.5773	1198.2169	-366.6036	197.9855	1351.6108	-443.5952
134	0.665	195.8656	1368.2393	-235.5668	332.4853	1325.3214	-205.2075	178.7084	1318.5482	-78.3795	208.8188	1322.5793	-37.8996	229.4882	1358.6899	-56.5294	202.6573	1340.9213	-359.3819	237.5744	1375.7559	-373.5602	225.5841	1396.9137	-326.6453	406.5904	1135.0444	-198.5786	175.4066	1189.6639	-239.389	293.614	1143.2469	-11.6673	233.6088	998.2116	-41.5748	245.2081	1009.913	23.2682	303.6394	857.4664	50.7958	355.843	795.8701	34.4968	307.9501	787.3454	51.4349	380.1506	714.4109	49.5595	331.5231	709.6026	62.9743	316.1687	1475.8755	-353.453	407.6592	1563.9816	-431.9211	362.0707	1589.2831	-440.0725	384.4546	1748.6643	-442.1481	394.8067	1821.8307	-425.1228	430.8155	1817.1781	-449.2087	398.4684	1896.4019	-433.3885	437.5562	1893.2575	-451.8243	373.3662	907.1758	-77.4724	186.1196	928.9307	-163.2149	375.6802	894.574	-335.8018	187.7351	922.6755	-265.4854	292.4284	970.9312	-51.4781	290.904	941.1421	-375.7702	139.3964	1289.964	-334.5021	167.5491	1198.1616	-366.5476	197.9362	1351.5652	-443.6133
